<?xml version="1.0" encoding="UTF-8" standalone="no"?>
<!-- Created with Inkscape (http://www.inkscape.org/) -->

<svg
   width="20mm"
   height="20mm"
   viewBox="0 0 20 20"
   version="1.1"
   id="svg1"
   xml:space="preserve"
   inkscape:version="1.4.2 (ebf0e940, 2025-05-08)"
   sodipodi:docname="cost_circles.svg"
   inkscape:export-filename="cost_circle_L_red1.png"
   inkscape:export-xdpi="258.03174"
   inkscape:export-ydpi="258.03174"
   xmlns:inkscape="http://www.inkscape.org/namespaces/inkscape"
   xmlns:sodipodi="http://sodipodi.sourceforge.net/DTD/sodipodi-0.dtd"
   xmlns:xlink="http://www.w3.org/1999/xlink"
   xmlns="http://www.w3.org/2000/svg"
   xmlns:svg="http://www.w3.org/2000/svg"><sodipodi:namedview
     id="namedview1"
     pagecolor="#ffffff"
     bordercolor="#000000"
     borderopacity="0.25"
     inkscape:showpageshadow="2"
     inkscape:pageopacity="0.0"
     inkscape:pagecheckerboard="0"
     inkscape:deskcolor="#d1d1d1"
     inkscape:document-units="mm"
     inkscape:zoom="6.7925048"
     inkscape:cx="30.769209"
     inkscape:cy="48.730183"
     inkscape:window-width="1632"
     inkscape:window-height="997"
     inkscape:window-x="55"
     inkscape:window-y="25"
     inkscape:window-maximized="0"
     inkscape:current-layer="g83" /><defs
     id="defs1"><inkscape:path-effect
       effect="roughen"
       id="path-effect4"
       is_visible="true"
       lpeversion="1.2"
       global_randomize="1;1"
       displace_x="0;1"
       displace_y="0.27;1"
       method="size"
       max_segment_size="0.190063"
       segments="2"
       handles="along"
       shift_nodes="true"
       fixed_displacement="false"
       spray_tool_friendly="false" /><inkscape:path-effect
       effect="roughen"
       id="path-effect3"
       is_visible="true"
       lpeversion="1.2"
       global_randomize="1;1"
       displace_x="0;1"
       displace_y="0.27;1"
       method="size"
       max_segment_size="0.190063"
       segments="2"
       handles="along"
       shift_nodes="true"
       fixed_displacement="false"
       spray_tool_friendly="false" /><linearGradient
       id="linearGradient9"
       inkscape:collect="always"
       inkscape:label="grad1"><stop
         style="stop-color:#567419;stop-opacity:1;"
         offset="0.48015875"
         id="stop8" /><stop
         style="stop-color:#abf0a5;stop-opacity:1;"
         offset="0.99989998"
         id="stop9" /></linearGradient><linearGradient
       id="linearGradient6"
       inkscape:collect="always"
       inkscape:label="grad1"><stop
         style="stop-color:#74191f;stop-opacity:1;"
         offset="0.48015875"
         id="stop5" /><stop
         style="stop-color:#f6c3d6;stop-opacity:1;"
         offset="0.99989998"
         id="stop6" /></linearGradient><linearGradient
       id="linearGradient2"
       inkscape:collect="always"
       inkscape:label="grad1"><stop
         style="stop-color:#194074;stop-opacity:1;"
         offset="0.48015875"
         id="stop2" /><stop
         style="stop-color:#b5c7f4;stop-opacity:1;"
         offset="0.99989998"
         id="stop3" /></linearGradient><inkscape:path-effect
       effect="roughen"
       id="path-effect2"
       is_visible="true"
       lpeversion="1.2"
       global_randomize="1.2;1"
       displace_x="0;1"
       displace_y="0.26;1"
       method="size"
       max_segment_size="0.2"
       segments="5"
       handles="retract"
       shift_nodes="true"
       fixed_displacement="false"
       spray_tool_friendly="false" /><inkscape:path-effect
       effect="roughen"
       id="path-effect1"
       is_visible="true"
       lpeversion="1.2"
       global_randomize="1;1"
       displace_x="0.071116;1"
       displace_y="0.06;1"
       method="size"
       max_segment_size="0.188265"
       segments="2"
       handles="along"
       shift_nodes="true"
       fixed_displacement="false"
       spray_tool_friendly="false" /><filter
       inkscape:menu-tooltip="Transparent plastic with deep colors"
       inkscape:menu="Bevels"
       inkscape:label="Deep Colors Plastic"
       style="color-interpolation-filters:sRGB"
       id="filter163"
       x="-1.0890489"
       y="-14.118455"
       width="3.178098"
       height="29.236912"><feGaussianBlur
         in="SourceGraphic"
         result="result6"
         stdDeviation="10"
         id="feGaussianBlur159" /><feComposite
         in2="SourceGraphic"
         in="result6"
         operator="xor"
         id="feComposite159" /><feGaussianBlur
         result="result2"
         stdDeviation="9"
         id="feGaussianBlur160" /><feComposite
         in2="SourceGraphic"
         operator="atop"
         result="result91"
         id="feComposite160" /><feComposite
         result="result4"
         in="result2"
         operator="xor"
         in2="result91"
         id="feComposite161" /><feGaussianBlur
         in="result4"
         result="result3"
         stdDeviation="5"
         id="feGaussianBlur161" /><feSpecularLighting
         lighting-color="#ffffff"
         in="result3"
         result="result5"
         specularExponent="35"
         specularConstant="2"
         surfaceScale="12"
         id="feSpecularLighting161"><feDistantLight
           elevation="45"
           azimuth="235"
           id="feDistantLight161" /></feSpecularLighting><feComposite
         in2="result5"
         in="SourceGraphic"
         k3="0.7"
         k2="0.9"
         operator="arithmetic"
         result="result7"
         id="feComposite162"
         k1="0"
         k4="0" /><feGaussianBlur
         in="result7"
         result="result10"
         stdDeviation="1"
         id="feGaussianBlur162" /><feComposite
         in="result11"
         operator="in"
         in2="SourceGraphic"
         id="feComposite163" /></filter><filter
       inkscape:menu-tooltip="Transparent plastic with deep colors"
       inkscape:menu="Bevels"
       inkscape:label="Deep Colors Plastic"
       style="color-interpolation-filters:sRGB"
       id="filter168"
       x="-19.427332"
       y="-0.71866989"
       width="39.854664"
       height="2.4373398"><feGaussianBlur
         in="SourceGraphic"
         result="result6"
         stdDeviation="10"
         id="feGaussianBlur163" /><feComposite
         in2="SourceGraphic"
         in="result6"
         operator="xor"
         id="feComposite164" /><feGaussianBlur
         result="result2"
         stdDeviation="9"
         id="feGaussianBlur164" /><feComposite
         in2="SourceGraphic"
         operator="atop"
         result="result91"
         id="feComposite165" /><feComposite
         result="result4"
         in="result2"
         operator="xor"
         in2="result91"
         id="feComposite166" /><feGaussianBlur
         in="result4"
         result="result3"
         stdDeviation="5"
         id="feGaussianBlur166" /><feSpecularLighting
         lighting-color="#ffffff"
         in="result3"
         result="result5"
         specularExponent="35"
         specularConstant="2"
         surfaceScale="12"
         id="feSpecularLighting166"><feDistantLight
           elevation="45"
           azimuth="235"
           id="feDistantLight166" /></feSpecularLighting><feComposite
         in2="result5"
         in="SourceGraphic"
         k3="0.7"
         k2="0.9"
         operator="arithmetic"
         result="result7"
         id="feComposite167"
         k1="0"
         k4="0" /><feGaussianBlur
         in="result7"
         result="result10"
         stdDeviation="1"
         id="feGaussianBlur167" /><feComposite
         in="result11"
         operator="in"
         in2="SourceGraphic"
         id="feComposite168" /></filter><filter
       inkscape:menu-tooltip="Transparent plastic with deep colors"
       inkscape:menu="Bevels"
       inkscape:label="Deep Colors Plastic"
       style="color-interpolation-filters:sRGB"
       id="filter173"
       x="-19.427244"
       y="-0.71866989"
       width="39.854488"
       height="2.4373398"><feGaussianBlur
         in="SourceGraphic"
         result="result6"
         stdDeviation="10"
         id="feGaussianBlur168" /><feComposite
         in2="SourceGraphic"
         in="result6"
         operator="xor"
         id="feComposite169" /><feGaussianBlur
         result="result2"
         stdDeviation="9"
         id="feGaussianBlur169" /><feComposite
         in2="SourceGraphic"
         operator="atop"
         result="result91"
         id="feComposite170" /><feComposite
         result="result4"
         in="result2"
         operator="xor"
         in2="result91"
         id="feComposite171" /><feGaussianBlur
         in="result4"
         result="result3"
         stdDeviation="5"
         id="feGaussianBlur171" /><feSpecularLighting
         lighting-color="#ffffff"
         in="result3"
         result="result5"
         specularExponent="35"
         specularConstant="2"
         surfaceScale="12"
         id="feSpecularLighting171"><feDistantLight
           elevation="45"
           azimuth="235"
           id="feDistantLight171" /></feSpecularLighting><feComposite
         in2="result5"
         in="SourceGraphic"
         k3="0.7"
         k2="0.9"
         operator="arithmetic"
         result="result7"
         id="feComposite172"
         k1="0"
         k4="0" /><feGaussianBlur
         in="result7"
         result="result10"
         stdDeviation="1"
         id="feGaussianBlur172" /><feComposite
         in="result11"
         operator="in"
         in2="SourceGraphic"
         id="feComposite173" /></filter><filter
       style="color-interpolation-filters:sRGB"
       inkscape:label="Diffuse Light"
       id="filter927"
       x="-0.030453641"
       y="-0.39480168"
       width="1.0609072"
       height="1.7896034"><feGaussianBlur
         in="SourceGraphic"
         stdDeviation="0.699088"
         result="blur"
         id="feGaussianBlur926" /><feDiffuseLighting
         diffuseConstant="1"
         surfaceScale="10"
         lighting-color="#3cd94e"
         result="diffuse"
         id="feDiffuseLighting926"><feDistantLight
           elevation="126"
           azimuth="42"
           id="feDistantLight926" /></feDiffuseLighting><feComposite
         in="diffuse"
         in2="diffuse"
         operator="arithmetic"
         k1="1"
         result="composite1"
         id="feComposite926"
         k2="0"
         k3="0"
         k4="0" /><feComposite
         in="composite1"
         in2="SourceGraphic"
         k1="1"
         operator="arithmetic"
         k3="1"
         result="composite2"
         id="feComposite927"
         k2="0"
         k4="0" /></filter><filter
       style="color-interpolation-filters:sRGB"
       inkscape:label="Diffuse Light"
       id="filter929"
       x="-0.54325658"
       y="-0.020096539"
       width="2.086513"
       height="1.0401931"><feGaussianBlur
         in="SourceGraphic"
         stdDeviation="0.699088"
         result="blur"
         id="feGaussianBlur927" /><feDiffuseLighting
         diffuseConstant="1"
         surfaceScale="10"
         lighting-color="#3cd94e"
         result="diffuse"
         id="feDiffuseLighting927"><feDistantLight
           elevation="126"
           azimuth="42"
           id="feDistantLight927" /></feDiffuseLighting><feComposite
         in="diffuse"
         in2="diffuse"
         operator="arithmetic"
         k1="1"
         result="composite1"
         id="feComposite928"
         k2="0"
         k3="0"
         k4="0" /><feComposite
         in="composite1"
         in2="SourceGraphic"
         k1="1"
         operator="arithmetic"
         k3="1"
         result="composite2"
         id="feComposite929"
         k2="0"
         k4="0" /></filter><filter
       style="color-interpolation-filters:sRGB"
       inkscape:label="Diffuse Light"
       id="filter931"
       x="-0.54325414"
       y="-0.020096539"
       width="2.0865083"
       height="1.0401931"><feGaussianBlur
         in="SourceGraphic"
         stdDeviation="0.699088"
         result="blur"
         id="feGaussianBlur929" /><feDiffuseLighting
         diffuseConstant="1"
         surfaceScale="10"
         lighting-color="#3cd94e"
         result="diffuse"
         id="feDiffuseLighting929"><feDistantLight
           elevation="126"
           azimuth="42"
           id="feDistantLight929" /></feDiffuseLighting><feComposite
         in="diffuse"
         in2="diffuse"
         operator="arithmetic"
         k1="1"
         result="composite1"
         id="feComposite930"
         k2="0"
         k3="0"
         k4="0" /><feComposite
         in="composite1"
         in2="SourceGraphic"
         k1="1"
         operator="arithmetic"
         k3="1"
         result="composite2"
         id="feComposite931"
         k2="0"
         k4="0" /></filter><filter
       inkscape:label="Velvet Bumps"
       inkscape:menu="Bumps"
       inkscape:menu-tooltip="Gives Smooth Bumps velvet like"
       style="color-interpolation-filters:sRGB"
       id="filter1041"
       x="-0.087272726"
       y="-0.12"
       width="1.1745455"
       height="1.24"><feGaussianBlur
         stdDeviation="1"
         result="result3"
         id="feGaussianBlur1040" /><feBlend
         in2="result3"
         result="result5"
         mode="screen"
         in="SourceGraphic"
         id="feBlend1040" /><feGaussianBlur
         stdDeviation="1"
         result="result7"
         id="feGaussianBlur1041" /><feConvolveMatrix
         order="3 3"
         kernelMatrix="2 0 0 1 1 -1 0 0 -2 "
         targetX="1"
         targetY="1"
         result="result8"
         id="feConvolveMatrix1041" /><feBlend
         mode="darken"
         in="result7"
         result="result6"
         in2="result8"
         id="feBlend1041" /></filter><filter
       inkscape:label="Velvet Bumps"
       inkscape:menu="Bumps"
       inkscape:menu-tooltip="Gives Smooth Bumps velvet like"
       style="color-interpolation-filters:sRGB"
       id="filter1047"
       x="-0.087272726"
       y="-0.13521127"
       width="1.1745455"
       height="1.2704225"><feGaussianBlur
         stdDeviation="1"
         result="result3"
         id="feGaussianBlur1046" /><feBlend
         in2="result3"
         result="result5"
         mode="screen"
         in="SourceGraphic"
         id="feBlend1046" /><feGaussianBlur
         stdDeviation="1"
         result="result7"
         id="feGaussianBlur1047" /><feConvolveMatrix
         order="3 3"
         kernelMatrix="2 0 0 1 1 -1 0 0 -2 "
         targetX="1"
         targetY="1"
         result="result8"
         id="feConvolveMatrix1047" /><feBlend
         mode="darken"
         in="result7"
         result="result6"
         in2="result8"
         id="feBlend1047" /></filter><filter
       style="color-interpolation-filters:sRGB"
       inkscape:label="Clean Edges"
       id="filter5"
       x="-0.016271187"
       y="-0.012075988"
       width="1.0325423"
       height="1.024152"><feGaussianBlur
         stdDeviation="0.4"
         result="blur"
         id="feGaussianBlur4" /><feComposite
         in="SourceGraphic"
         in2="blur"
         operator="in"
         result="composite1"
         id="feComposite4" /><feComposite
         in="composite1"
         in2="composite1"
         operator="in"
         result="composite2"
         id="feComposite5" /></filter><filter
       style="color-interpolation-filters:sRGB"
       inkscape:label="Bump"
       id="filter376"
       x="-0.70894051"
       y="-0.70894051"
       width="2.417881"
       height="2.417881"><feGaussianBlur
         in="SourceGraphic"
         stdDeviation="2.26208"
         result="blur1"
         id="feGaussianBlur373" /><feColorMatrix
         in="BackgroundImage"
         values="1 0 0 0 0 0 1 0 0 0 0 0 1 0 0 31.8182 27.5758 25.1515 1 0 "
         result="colormatrix1"
         id="feColorMatrix373" /><feColorMatrix
         in="colormatrix1"
         type="luminanceToAlpha"
         result="colormatrix2"
         id="feColorMatrix374" /><feComposite
         in2="blur1"
         operator="arithmetic"
         k2="1"
         k3="-15.2047"
         result="composite1"
         id="feComposite374"
         k1="0"
         k4="0" /><feGaussianBlur
         in="composite1"
         stdDeviation="2.46419"
         result="blur2"
         id="feGaussianBlur374" /><feSpecularLighting
         lighting-color="#ffffff"
         surfaceScale="18.3526001"
         specularConstant="2.69452"
         specularExponent="16"
         result="lighting"
         id="feSpecularLighting374"><feDistantLight
           azimuth="225"
           elevation="45"
           id="feDistantLight374" /></feSpecularLighting><feFlood
         flood-color="rgb(41,197,79)"
         flood-opacity="1"
         result="flood"
         id="feFlood374" /><feComposite
         in="lighting"
         in2="blur1"
         operator="arithmetic"
         k3="1"
         k2="1"
         result="composite2"
         id="feComposite375"
         k1="0"
         k4="0" /><feBlend
         in2="SourceGraphic"
         mode="normal"
         result="blend"
         id="feBlend375" /><feComposite
         in="blend"
         in2="SourceGraphic"
         operator="in"
         result="composite3"
         id="feComposite376" /></filter><filter
       inkscape:label="Thick Paint"
       inkscape:menu="Bumps"
       inkscape:menu-tooltip="Thick painting effect with turbulence"
       style="color-interpolation-filters:sRGB"
       id="filter378"
       x="-0.13500001"
       y="-0.13500001"
       width="1.27"
       height="1.27"><feGaussianBlur
         result="result6"
         stdDeviation="0.9"
         id="feGaussianBlur376" /><feTurbulence
         type="fractalNoise"
         baseFrequency="0.12"
         numOctaves="3"
         result="result2"
         id="feTurbulence376" /><feDisplacementMap
         yChannelSelector="A"
         xChannelSelector="R"
         scale="10"
         in2="result2"
         result="result5"
         in="result6"
         id="feDisplacementMap376" /><feBlend
         in="result6"
         in2="result5"
         mode="lighten"
         result="fbSourceGraphic"
         id="feBlend376" /><feColorMatrix
         result="result2"
         type="luminanceToAlpha"
         in="fbSourceGraphic"
         id="feColorMatrix376" /><feDiffuseLighting
         diffuseConstant="0.64999998"
         result="result1"
         surfaceScale="-4"
         id="feDiffuseLighting376"><feDistantLight
           azimuth="225"
           elevation="35"
           id="feDistantLight376" /></feDiffuseLighting><feComposite
         result="result3"
         k3="0.5"
         k1="1.37"
         in="result1"
         operator="arithmetic"
         in2="fbSourceGraphic"
         id="feComposite377"
         k2="0"
         k4="0" /><feComposite
         result="result5"
         operator="in"
         in="result3"
         in2="result3"
         id="feComposite378" /></filter><filter
       inkscape:label="Canvas Bumps"
       inkscape:menu-tooltip="Canvas texture with an HSL sensitive height map"
       inkscape:menu="Bumps"
       style="color-interpolation-filters:sRGB"
       id="filter8"
       x="-0.075"
       y="-0.075"
       width="1.15"
       height="1.15"><feTurbulence
         type="turbulence"
         result="result1"
         numOctaves="7"
         seed="300"
         baseFrequency="0.2"
         id="feTurbulence7" /><feDisplacementMap
         xChannelSelector="R"
         in2="result1"
         result="result7"
         id="feDisplacementMap7"
         scale="0"
         yChannelSelector="A" /><feBlend
         in="result7"
         in2="SourceGraphic"
         mode="screen"
         result="fbSourceGraphic"
         id="feBlend7" /><feColorMatrix
         result="fbSourceGraphicAlpha"
         values="1 0 0 -1 0 1 0 1 -1 0 1 0 0 -1 0 -0.8 -1 0 4 -2.5 "
         id="feColorMatrix7" /><feGaussianBlur
         result="result0"
         in="fbSourceGraphicAlpha"
         stdDeviation="0.5"
         id="feGaussianBlur7" /><feSpecularLighting
         result="result6"
         surfaceScale="5"
         specularConstant="1"
         specularExponent="5"
         id="feSpecularLighting7"><feDistantLight
           azimuth="225"
           elevation="35"
           id="feDistantLight7" /></feSpecularLighting><feComposite
         in2="SourceGraphic"
         k3="1"
         k2="0.5"
         operator="arithmetic"
         result="result4"
         id="feComposite7"
         k1="0"
         k4="0" /><feComposite
         operator="in"
         result="result2"
         in="result4"
         in2="SourceGraphic"
         id="feComposite8" /></filter><filter
       inkscape:label="Clean Edges"
       inkscape:menu-tooltip="Canvas texture with an HSL sensitive height map"
       inkscape:menu="Bumps"
       style="color-interpolation-filters:sRGB"
       id="filter14"
       x="-0.02440678"
       y="-0.01811398"
       width="1.0488136"
       height="1.0362279"><feTurbulence
         type="turbulence"
         result="result1"
         numOctaves="7"
         seed="300"
         baseFrequency="0.2"
         id="feTurbulence13" /><feDisplacementMap
         xChannelSelector="R"
         in2="result1"
         result="result7"
         id="feDisplacementMap13"
         scale="0"
         yChannelSelector="A" /><feBlend
         in="result7"
         in2="SourceGraphic"
         mode="screen"
         result="fbSourceGraphic"
         id="feBlend13" /><feColorMatrix
         result="fbSourceGraphicAlpha"
         values="1 0 0 -1 0 1 0 1 -1 0 1 0 0 -1 0 -0.8 -1 0 4 -2.5 "
         id="feColorMatrix13" /><feGaussianBlur
         result="result0"
         in="fbSourceGraphicAlpha"
         stdDeviation="0.5"
         id="feGaussianBlur13" /><feSpecularLighting
         result="result6"
         surfaceScale="5"
         specularConstant="1"
         specularExponent="5"
         id="feSpecularLighting13"><feDistantLight
           azimuth="225"
           elevation="35"
           id="feDistantLight13" /></feSpecularLighting><feComposite
         in2="SourceGraphic"
         k3="1"
         k2="0.5"
         operator="arithmetic"
         result="result4"
         id="feComposite13"
         k1="0"
         k4="0" /><feComposite
         operator="in"
         result="fbSourceGraphic"
         in="result4"
         in2="SourceGraphic"
         id="feComposite14" /><feColorMatrix
         result="fbSourceGraphicAlpha"
         in="fbSourceGraphic"
         values="0 0 0 -1 0 0 0 0 -1 0 0 0 0 -1 0 0 0 0 1 0"
         id="feColorMatrix35" /><feGaussianBlur
         id="feGaussianBlur35"
         stdDeviation="0.1"
         result="blur"
         in="fbSourceGraphic" /><feComposite
         id="feComposite35"
         in="fbSourceGraphic"
         in2="blur"
         operator="in"
         result="composite1" /><feComposite
         id="feComposite36"
         in="composite1"
         in2="composite1"
         operator="in"
         result="composite2" /></filter><filter
       style="color-interpolation-filters:sRGB"
       inkscape:label="Clean Edges"
       id="filter30"
       x="-0.01309091"
       y="-0.020281691"
       width="1.0261818"
       height="1.0405633"><feGaussianBlur
         stdDeviation="0.3"
         result="blur"
         id="feGaussianBlur29" /><feComposite
         in="SourceGraphic"
         in2="blur"
         operator="in"
         result="composite1"
         id="feComposite29" /><feComposite
         in="composite1"
         in2="composite1"
         operator="in"
         result="composite2"
         id="feComposite30" /></filter><filter
       style="color-interpolation-filters:sRGB"
       inkscape:label="Clean Edges"
       id="filter32"
       x="-0.01309091"
       y="-0.018000001"
       width="1.0261818"
       height="1.036"><feGaussianBlur
         stdDeviation="0.3"
         result="blur"
         id="feGaussianBlur30" /><feComposite
         in="SourceGraphic"
         in2="blur"
         operator="in"
         result="composite1"
         id="feComposite31" /><feComposite
         in="composite1"
         in2="composite1"
         operator="in"
         result="composite2"
         id="feComposite32" /></filter><filter
       style="color-interpolation-filters:sRGB"
       inkscape:label="Clean Edges"
       id="filter45"
       x="-0.04500393"
       y="-0.050992018"
       width="1.0900079"
       height="1.101984"><feGaussianBlur
         stdDeviation="0.2"
         result="blur"
         id="feGaussianBlur44" /><feComposite
         in="SourceGraphic"
         in2="blur"
         operator="in"
         result="composite1"
         id="feComposite44" /><feComposite
         in="composite1"
         in2="composite1"
         operator="in"
         result="composite2"
         id="feComposite45" /></filter><filter
       style="color-interpolation-filters:sRGB"
       inkscape:label="Clean Edges"
       id="filter47"
       x="-0.050509879"
       y="-0.047642675"
       width="1.1010198"
       height="1.0952853"><feGaussianBlur
         stdDeviation="0.2"
         result="blur"
         id="feGaussianBlur45" /><feComposite
         in="SourceGraphic"
         in2="blur"
         operator="in"
         result="composite1"
         id="feComposite46" /><feComposite
         in="composite1"
         in2="composite1"
         operator="in"
         result="composite2"
         id="feComposite47" /></filter><filter
       style="color-interpolation-filters:sRGB"
       inkscape:label="Clean Edges"
       id="filter49"
       x="-0.050509743"
       y="-0.047642666"
       width="1.1010195"
       height="1.0952853"><feGaussianBlur
         stdDeviation="0.2"
         result="blur"
         id="feGaussianBlur47" /><feComposite
         in="SourceGraphic"
         in2="blur"
         operator="in"
         result="composite1"
         id="feComposite48" /><feComposite
         in="composite1"
         in2="composite1"
         operator="in"
         result="composite2"
         id="feComposite49" /></filter><linearGradient
       inkscape:collect="always"
       xlink:href="#linearGradient2"
       id="linearGradient3"
       x1="13.31563"
       y1="12.55194"
       x2="13.31563"
       y2="0.92658204"
       gradientUnits="userSpaceOnUse" /><linearGradient
       inkscape:collect="always"
       xlink:href="#linearGradient6"
       id="linearGradient5"
       x1="12.835091"
       y1="12.951237"
       x2="3.7737534"
       y2="18.182802"
       gradientUnits="userSpaceOnUse" /><linearGradient
       inkscape:collect="always"
       xlink:href="#linearGradient9"
       id="linearGradient8"
       x1="13.809772"
       y1="12.906865"
       x2="22.871109"
       y2="18.138432"
       gradientUnits="userSpaceOnUse" /></defs><g
     inkscape:groupmode="layer"
     id="layer5"
     inkscape:label="cost_ticks"
     style="display:none"><path
       style="display:inline;fill:#83d4f7;fill-opacity:1;stroke-width:0.264583"
       d="m 5.3910356,5.4862242 c 0,0 1.0762962,-2.5415814 4.5567408,-2.5415814 3.4280616,0 4.5522036,2.5279694 4.5522036,2.5279694 0,0 -0.397148,-0.2013786 -1.171184,-0.4006508 C 12.554759,4.8726892 11.365866,5.4254024 9.9057724,5.4243356 8.3356786,5.4231885 7.1998994,4.8932924 6.4661057,5.0916675 5.732312,5.2900427 5.3910356,5.4862242 5.3910356,5.4862242 Z"
       id="path62"
       sodipodi:nodetypes="cscsszc" /><circle
       style="fill:#8397f7;fill-opacity:1;stroke-width:0.264583"
       id="path70"
       cx="9.8960743"
       cy="4.1461215"
       r="1.0637013" /><path
       style="display:inline;fill:#83d4f7;fill-opacity:1;stroke-width:0.264583"
       d="m 5.3910356,5.4862242 c 0,0 1.4110505,-1.1805024 2.1085624,-1.4585378 0.6975119,-0.2780353 1.405245,0.4743512 2.3717954,0.4837886 0.9639536,0.00941 1.9123816,-0.7066252 2.6285426,-0.4319928 0.716161,0.2746324 2.000044,1.39313 2.000044,1.39313 0,0 -0.397148,-0.2013786 -1.171184,-0.4006508 C 12.554759,4.8726892 11.365866,5.4254024 9.9057724,5.4243356 8.3356786,5.4231885 7.1998994,4.8932924 6.4661057,5.0916675 5.732312,5.2900427 5.3910356,5.4862242 5.3910356,5.4862242 Z"
       id="path49"
       sodipodi:nodetypes="cssscsszc" /><path
       style="display:inline;fill:#83d4f7;fill-opacity:1;stroke-width:0.264583"
       d="m 14.49998,15.522305 c 0,0 -1.076296,2.541581 -4.5567406,2.541581 -3.4280622,0 -4.5522038,-2.527969 -4.5522038,-2.527969 0,0 0.3971479,0.201379 1.1711843,0.400651 0.7740365,0.199272 1.9629302,-0.353441 3.4230245,-0.352374 1.5700926,0.0011 2.7058716,0.531043 3.4396656,0.332668 0.733794,-0.198376 1.07507,-0.394557 1.07507,-0.394557 z"
       id="path71"
       sodipodi:nodetypes="cscsszc" /></g><g
     inkscape:groupmode="layer"
     id="layer4"
     inkscape:label="background_shape"
     transform="translate(-3.2392746,-1.774945)"
     style="display:none"><circle
       style="fill:#ca9d2f;fill-opacity:1;stroke-width:0.222191;filter:url(#filter8)"
       id="path7"
       cx="13.315299"
       cy="12.293126"
       r="8"
       inkscape:label="back_circle-bump-canvas" /><path
       style="display:none;fill:#2f6cca;fill-opacity:1;stroke-width:0.264583"
       d="m 8.1108648,4.4294162 h 9.9999992 l -4,6.9999998 h -2 z"
       id="path36"
       sodipodi:nodetypes="ccccc"
       inkscape:label="shape" /></g><g
     inkscape:groupmode="layer"
     id="g83"
     inkscape:label="cost_circles"
     transform="translate(-3.2392746,-1.774945)"
     style="display:inline"><circle
       style="display:none;fill:#ca9d2f;fill-opacity:1;stroke-width:0.222191;filter:url(#filter8)"
       id="circle80"
       cx="13.315299"
       cy="12.293126"
       r="8"
       inkscape:label="back_circle-bump-canvas" /><path
       style="display:none;fill:#2f6cca;fill-opacity:1;stroke-width:0.264583"
       d="m 8.3152994,4.2931265 h 9.9999996 l -4,6.9999995 h -2 z"
       id="path80"
       sodipodi:nodetypes="ccccc" /><path
       style="display:none;fill:url(#linearGradient3);fill-opacity:1;stroke-width:0.264583;filter:url(#filter45)"
       d="M 8.3152994,4.2728172 8.407902,4.0591469 8.4703554,4.0064136 8.5977713,3.7770779 8.685314,3.6337569 8.7928498,3.5228092 8.9298961,3.4264275 9.0884173,3.204083 9.2009363,3.1608079 9.3786616,3.0438058 9.5462514,2.9710443 9.7291956,2.8727998 9.907119,2.7848278 l 0.182295,-0.2660233 0.138073,-0.1574639 0.18001,-0.046514 0.205686,-0.047449 0.20803,-0.042091 0.210168,-0.03206 0.2125,-0.023736 0.214383,-0.2455341 0.219678,-0.0012 0.21765,-1.322e-4 0.218779,0.059175 0.21493,-0.029519 0.222589,-0.013716 0.222601,-0.039586 0.227512,-0.032173 0.229316,-0.087264 0.24711,0.020129 0.223081,0.035751 0.217558,-0.1091496 0.269737,0.1347265 0.185322,0.085711 0.196425,0.1079862 0.19108,0.06603 0.203382,-0.046145 0.239021,0.1118154 0.18923,-0.155913 0.289567,0.170859 0.17232,0.094806 0.1784,0.043751 0.201781,0.177976 0.145268,0.045867 0.187936,0.1037051 0.17142,-0.077238 0.242119,0.1462267 0.173744,0.028872 0.19182,0.138281 0.155507,0.010605 0.172742,0.244012 0.11267,0.2495946 0.07336,0.1925129 0.06734,0.1233945 0.09315,-0.1444821 0.131542,0.397463 0.07454,0.2078895 0.08682,0.099016 0.08525,0.1984625 0.05968,0.1319425 0.06161,0.1942452 0.04227,0.1313065 0.04047,0.1011714 0.03345,0.2799833 0.009,0.1597294 0.0015,0.1941054 -0.0062,0.1967581 -0.0116,0.1784399 -0.01823,-0.021051 -0.06548,0.3408882 -0.04575,0.09013 -0.07961,0.2776901 -0.05888,0.2253232 -0.05248,0.028273 -0.116435,0.2397911 -0.09744,0.2080743 -0.09229,0.1515299 -0.110989,-0.016687 -0.188736,0.3541067 -0.103615,0.2039791 -0.100069,0.087204 -0.147841,0.1728203 -0.144602,0.2854904 -0.09423,0.085947 -0.150514,0.1629015 -0.151098,0.19434 -0.138057,0.1706563 -0.141224,0.1739004 -0.141969,0.01465 -0.206957,0.1728186 -0.174973,0.2821051 -0.110901,-0.080257 -0.224219,0.2677089 -0.144417,0.17762 -0.135599,0.223137 -0.115559,0.06745 -0.168599,0.218428 -0.138668,0.06433 -0.172274,-0.123652 -0.197029,0.227854 -0.13933,0.23059 -0.14734,0.132307 -0.163549,0.0937 -0.170694,0.07203 -0.18332,0.05855 -0.191873,0.01581 -0.194816,0.03461 -0.199163,0.01 -0.197711,-0.05675 -0.183267,-0.02564 -0.183359,-0.03975 -0.172228,-0.09186 -0.16002,-0.131089 -0.159506,-0.142478 -0.141273,-0.03079 -0.186319,-0.105409 -0.170738,-0.252665 -0.105917,-0.08375 -0.161935,-0.113053 -0.166622,-0.19741 -0.135093,-0.09408 L 10.918592,10.151668 10.744152,9.985661 10.590884,9.9039819 10.408506,9.7930772 10.227099,9.6892174 10.041351,9.5010228 9.8902276,9.3707376 9.728984,9.2175209 9.5736875,9.007495 9.4471149,8.8486197 9.3138909,8.6801842 9.1829078,8.5290741 9.0476129,8.3287629 8.9319628,8.1240731 8.8308516,7.8685685 8.7603937,7.7715965 8.6463288,7.5892098 8.5445878,7.3596458 8.4690295,7.2162292 8.3807657,7.083303 8.287203,6.8526185 8.2230331,6.7706503 8.1412434,6.4133256 8.1172999,6.4156897 8.0531907,6.1783957 8.0182984,5.9970319 7.9951627,5.8218457 7.9832143,5.6400061 7.9828056,5.4924974 l 0.012662,-0.1956203 0.023228,-0.4636029 0.00257,0.00131 0.052547,-0.1380395 0.070682,-0.064564 0.084863,-0.1317658 z"
       id="path37"
       sodipodi:nodetypes="sssss"
       inkscape:label="top_blue"
       inkscape:path-effect="#path-effect2"
       inkscape:original-d="m 8.3152994,4.2931265 c 1.6730894,-2.8830336 8.3269106,-2.8830336 9.9999996,0 1.348888,2.324376 -1.675624,5.6511118 -4,6.9999995 -0.576606,0.334618 -1.423393,0.334618 -2,0 C 9.9909234,9.9442383 6.9664116,6.6175025 8.3152994,4.2931265 Z" /><path
       style="display:none;fill:url(#linearGradient8);fill-opacity:1;stroke-width:0.264583;filter:url(#filter49)"
       d="m 22.651056,11.908541 c 0.02767,0.04817 0.05396,0.01502 0.07888,0.06475 0.03502,-0.0036 0.06735,0.171584 0.09706,0.24443 0.01764,0.07354 0.03436,0.02934 0.05016,0.07357 0.02513,0.01267 0.04796,0.102148 0.06853,0.17485 0.01899,0.02734 0.03605,0.132025 0.05124,0.201023 0.01255,0.05385 0.02382,0.138123 0.03383,0.196341 0.0085,0.07284 0.01607,0.01909 0.02276,0.06926 0.01118,0.0037 0.01987,0.20032 0.02614,0.286255 0.0035,0.07993 0.0063,0.0974 0.0083,0.146339 0.0024,0.05972 0.0038,0.142557 0.004,0.202665 2.15e-4,0.07592 -3.94e-4,0.107162 -0.0018,0.160094 -0.0016,0.06221 -0.0043,0.121366 -0.0079,0.182099 -0.0037,0.06194 -0.0084,-0.03594 -0.01418,0.02574 -0.01051,-0.04568 -0.02442,0.132347 -0.04159,0.247097 -0.01372,-0.0026 -0.02952,0.187757 -0.04734,0.280604 -0.01165,0.06444 -0.02417,0.125873 -0.03753,0.18699 -0.01331,0.0651 -0.02746,0.126361 -0.04242,0.18756 -0.01494,0.0655 -0.0307,0.131154 -0.04725,0.192478 -0.01619,0.0688 -0.03314,0.132335 -0.05083,0.192443 -0.0174,0.07143 -0.03552,-0.06476 -0.05435,-0.0056 -0.03697,-0.06685 -0.07665,0.242085 -0.11893,0.358853 -0.02152,0.06873 -0.04372,0.12633 -0.06657,0.185803 -0.02305,0.0674 -0.04676,0.175919 -0.07113,0.235859 -0.01887,0.102372 -0.03814,0.07333 -0.05778,0.119647 -0.02859,0.04792 -0.05799,0.123526 -0.08817,0.190628 -0.0291,0.05355 -0.05893,0.09097 -0.08947,0.155313 -0.03389,0.03313 -0.06865,0.103183 -0.104259,0.174121 -0.03559,0.03148 -0.07202,0.0468 -0.109261,0.117192 -0.0444,-0.01086 -0.08996,0.149803 -0.136627,0.233119 -0.03559,0.04575 -0.07183,0.121386 -0.108695,0.184487 -0.03498,0.05437 -0.07052,-0.01361 -0.106611,0.04578 -0.05417,-0.044 -0.109567,0.224622 -0.166121,0.313047 -0.0295,0.0927 -0.05932,0.121304 -0.08944,0.16707 -0.03269,0.07889 -0.06574,0.146208 -0.09914,0.195324 -0.03069,0.09227 -0.06168,0.105122 -0.09296,0.149654 -0.03623,0.06673 -0.07285,0.01688 -0.109833,0.06755 -0.05258,-0.01382 -0.105911,0.168097 -0.159949,0.238566 -0.03642,0.07224 -0.07316,-0.09698 -0.110217,-0.05036 -0.07107,-0.10213 -0.143281,0.192595 -0.216544,0.280427 -0.03939,0.06156 -0.07909,0.09735 -0.119079,0.143874 -0.04153,0.05153 -0.08337,0.05122 -0.125518,0.09863 -0.04971,0.01093 -0.09984,0.160274 -0.150364,0.215019 -0.03495,0.08682 -0.07009,0.04531 -0.105413,0.08233 -0.04806,0.02034 -0.09645,0.08971 -0.145146,0.138562 -0.04534,0.03515 -0.09095,-0.07346 -0.136821,-0.02939 -0.07109,-0.09547 -0.142778,0.06658 -0.215019,0.133951 -0.05601,-0.01765 -0.112358,-0.03046 -0.169002,0.02148 -0.06748,-0.07312 -0.135381,0.02325 -0.203661,0.08658 -0.06168,-0.04459 -0.123664,-0.08149 -0.185921,-0.02236 -0.07971,-0.121734 -0.159856,0.06634 -0.240377,0.150407 -0.05694,-0.03198 -0.114061,0.126605 -0.171343,0.189801 -0.03544,0.0439 -0.07094,0.121957 -0.106501,0.161106 -0.02652,0.07268 -0.05306,0.07413 -0.07964,0.102276 -0.0303,0.04829 -0.06065,-0.17442 -0.09102,-0.144424 -0.07859,-0.160037 -0.157393,0.162865 -0.236346,0.254872 -0.03053,0.02701 -0.06109,0.108861 -0.09166,0.143308 -0.02125,0.06164 -0.04251,0.03822 -0.06377,0.05921 -0.0318,0.02314 -0.06362,0.09267 -0.09546,0.117653 -0.03368,0.05917 -0.06738,0.04492 -0.101084,0.05654 -0.05359,0.01847 -0.107205,0.04779 -0.16082,0.04791 -0.05718,1.27e-4 -0.113761,-0.0077 -0.169746,-0.01137 -0.05571,-0.0097 -0.110838,-0.07355 -0.165369,-0.08095 -0.05048,-0.07112 -0.100457,0.01476 -0.149924,0.0049 -0.05474,0.01907 -0.108856,-0.0068 -0.162351,-0.02136 -0.05345,0.0023 -0.106279,0.0014 -0.158486,-0.01661 -0.05481,0.01333 -0.108929,0.0087 -0.162365,-0.01404 -0.05693,0.02427 -0.113091,-0.0036 -0.168468,-0.03196 -0.05674,0.01788 -0.112659,-0.189662 -0.167762,-0.223044 -0.02785,-0.146163 -0.0555,-0.02137 -0.08293,-0.03924 -0.04828,-0.01857 -0.09592,-0.131425 -0.142912,-0.165904 -0.03409,-0.09198 -0.06784,-0.02843 -0.101247,-0.05492 -0.04754,-0.01535 -0.0944,-0.01895 -0.140558,-0.05957 -0.05267,0.01159 -0.104442,-0.177699 -0.155311,-0.227795 -0.02758,-0.110232 -0.05489,-0.0741 -0.08194,-0.102255 -0.03736,-0.05817 -0.07422,-0.07078 -0.110565,-0.111456 -0.04088,-0.03785 -0.08113,-0.111192 -0.120731,-0.159118 -0.03543,-0.06145 -0.07034,-0.270822 -0.104748,-0.31532 -0.0081,-0.194746 -0.01622,-0.01432 -0.02428,-0.02489 -0.03819,-0.04334 -0.07573,-0.07445 -0.112638,-0.126029 -0.0403,-0.02986 -0.07983,-0.172651 -0.118599,-0.230745 -0.02612,-0.09824 -0.0519,-0.12603 -0.07733,-0.165853 -0.02731,-0.09016 -0.05422,-0.02653 -0.08073,-0.06996 -0.04226,-0.0099 -0.0835,-0.174784 -0.123719,-0.245867 -0.02723,-0.08345 -0.05398,-0.128902 -0.08027,-0.177719 -0.02686,-0.08217 -0.05322,-0.101827 -0.0791,-0.152291 -0.03012,-0.06052 -0.05958,-0.117541 -0.08837,-0.177022 -0.02926,-0.06011 -0.05784,-0.114062 -0.08573,-0.175203 -0.02891,-0.05619 -0.05708,-0.250315 -0.08452,-0.314404 -0.01199,-0.151189 -0.02384,-0.127752 -0.03554,-0.155745 -0.01784,-0.114413 -0.03535,-0.03187 -0.05254,-0.07432 -0.03181,-0.02522 -0.0625,-0.329263 -0.09207,-0.407665 -0.0053,-0.186137 -0.01047,-0.05346 -0.01565,-0.06732 -0.02127,-0.08254 -0.04194,-0.113806 -0.06202,-0.169472 -0.02321,-0.06502 -0.04562,-0.06676 -0.06723,-0.129675 -0.0284,-0.02152 -0.05542,-0.192256 -0.08106,-0.273977 -0.01766,-0.08375 -0.03467,-0.0532 -0.05102,-0.108877 -0.02417,-0.02324 -0.04691,-0.181572 -0.0682,-0.264374 -0.01527,-0.0761 -0.02981,-0.327578 -0.0436,-0.386938 0,-0.208853 0,-0.07842 0,-0.07842 -0.009,-0.117137 -0.01768,-0.05711 -0.02605,-0.09316 -0.01686,-0.05374 -0.03244,-0.100058 -0.04674,-0.165274 -0.01677,-0.03579 -0.03178,-0.131397 -0.04504,-0.205427 -0.01197,-0.04745 -0.02251,-0.115375 -0.0316,-0.184838 -0.0085,-0.04529 -0.01567,-0.108452 -0.02164,-0.178988 -0.0054,-0.03968 -0.0097,-0.127456 -0.01311,-0.199578 -0.0027,-0.05339 -0.0048,-0.08774 -0.0062,-0.149974 -0.0013,-0.05866 -0.002,-0.114549 -0.0022,-0.1708 -1.36e-4,-0.06061 0.0032,-0.11975 0.0099,-0.181648 0.0068,-0.0603 0.01691,-0.09755 0.03023,-0.160693 0.01488,-0.0424 0.03373,-0.100757 0.05624,-0.171615 0.02304,-0.03168 0.04993,-0.120916 0.08035,-0.193782 0.02757,-0.04125 0.05804,-0.144004 0.09118,-0.209775 0.02786,-0.06686 0.0576,-0.151729 0.08909,-0.205118 0.02779,-0.08897 0.05694,-0.04574 0.08735,-0.08881 0.04412,-0.01604 0.09091,-0.110565 0.140061,-0.170067 0.04244,-0.03745 0.08664,-0.219047 0.132428,-0.267558 0.03755,-0.156331 0.07616,-0.06948 0.115734,-0.08041 0.0541,-0.01495 0.109991,-0.009 0.167408,-0.04199 0.04958,-0.02848 0.100098,-0.125998 0.151499,-0.1541 0.0422,-0.09228 0.08499,-0.04598 0.128351,-0.06872 0.05341,-0.02801 0.107684,-0.04284 0.16277,-0.07029 0.05668,-0.01533 0.114223,-0.08312 0.172569,-0.110738 0.05326,-0.05213 0.107189,-0.01563 0.161746,-0.04025 0.06218,0.0064 0.125181,-0.01697 0.188932,-0.04422 0.0637,0.01153 0.128151,8.36e-4 0.193292,-0.02559 0.06636,0.028 0.133428,-0.05467 0.20115,-0.08075 0.06109,-0.02476 0.122714,-0.02245 0.184816,-0.04523 0.0647,5.17e-4 0.12991,-0.02475 0.195592,-0.04765 0.06521,-4.15e-4 0.130877,-0.06866 0.196952,-0.09054 0.06151,-0.04397 0.123366,-0.04604 0.185533,-0.06557 0.064,-0.02582 0.128337,-0.04169 0.192949,-0.06085 0.06499,-0.0212 0.13026,-0.02109 0.195768,-0.03934 0.06705,-0.0017 0.134339,-0.04758 0.201828,-0.06515 0.0652,-0.02773 0.130584,-0.06556 0.196103,-0.08143 0.06412,-0.04767 0.128375,-0.121957 0.192715,-0.136317 0.06091,-0.105056 0.1219,-0.0238 0.18293,-0.03613 0.06779,-0.01093 0.135624,-0.03453 0.203461,-0.04664 0.06731,-0.01993 0.134628,-0.07787 0.201893,-0.08825 0.0655,-0.06475 0.130952,-0.03467 0.196312,-0.04307 0.06771,-0.02399 0.135331,0.0053 0.202797,-0.0015 0.06865,0.01486 0.137145,-0.04414 0.205431,-0.04908 0.06718,-0.03618 0.134157,0.04616 0.200882,0.04332 0.06762,0.052 0.134977,-0.111342 0.202023,-0.112319 0.06718,-0.107506 0.134047,0.05901 0.200547,0.06042 0.06562,0.06117 0.130883,0.0062 0.195737,0.0097 0.06513,0.0059 0.12985,0.0077 0.194105,0.0133 0.06422,0.0053 0.127977,0.01431 0.191219,0.02203 0.06301,0.0098 0.125503,0.01439 0.187437,0.02422 0.06203,0.0078 0.123502,0.04324 0.184356,0.05527 0.05882,0.0341 0.117075,0.02806 0.174703,0.0416 0.05859,0.01762 0.116542,-0.21976 0.173801,-0.203997 0.0881,-0.224026 0.174559,0.05543 0.259204,0.08993 0.0588,0.02548 0.116727,-0.01138 0.173716,0.01706 0.06624,-0.02859 0.131216,0.09038 0.194834,0.130228 0.0475,0.05042 0.09425,0.102143 0.140194,0.134925 0.03981,0.06945 0.07902,0.03999 0.117602,0.06987 0.0477,0.01937 0.09445,0.02724 0.140206,0.06673 0.05095,-0.004 0.100658,0.0093 0.149062,0.05784 0.05369,-0.02735 0.105783,0.07068 0.156174,0.133795 0.04108,0.0088 0.08104,0.127056 0.119814,0.185017 0.02667,0.0599 0.05279,0.08462 0.07833,0.12525 0.02821,0.0492 0.05572,0.122948 0.08251,0.167501 0.02425,0.07349 0.0479,0.119644 0.07096,0.155727 0.02744,0.08453 0.05402,0.02737 0.07972,0.05855 0.03487,0.04231 0.06811,0.122583 0.09966,0.177502 z"
       id="path38"
       sodipodi:nodetypes="sssss"
       inkscape:label="right_green"
       inkscape:path-effect="#path-effect4"
       inkscape:original-d="m 22.651056,11.899889 c 1.660235,2.890455 -1.666675,8.652833 -5.000001,8.660254 -2.687411,0.006 -4.056193,-4.276689 -4.062177,-6.964102 -0.0015,-0.666665 0.421909,-1.400003 1,-1.73205 2.330359,-1.338525 6.723653,-2.2944611 8.062178,0.0359 z" /><path
       style="display:inline;fill:url(#linearGradient5);fill-opacity:1;stroke-width:0.264583;filter:url(#filter47)"
       d="m 8.993807,20.613168 c -0.055555,-1.24e-4 -0.1111091,-0.08397 -0.1666378,-0.08725 -0.052836,-0.07659 -0.10565,0.02265 -0.1584214,0.01677 -0.055835,0.02407 -0.111623,-0.07163 -0.1673398,-0.08086 -0.050796,-0.0661 -0.1015338,-0.05782 -0.1521943,-0.06865 -0.050639,-0.05059 -0.1012008,-0.02601 -0.1516683,-0.03917 -0.052951,-0.01698 -0.1057978,-0.0054 -0.15852,-0.02173 -0.055566,0.0063 -0.1109938,-0.115825 -0.166259,-0.135726 -0.044324,-0.09603 -0.088544,-0.0012 -0.1326473,-0.0188 -0.056231,0.0091 -0.112272,-0.04586 -0.168097,-0.07099 -0.052606,-0.02325 -0.1050195,-0.02497 -0.1572201,-0.05092 -0.05557,-0.0041 -0.1108976,-0.05444 -0.165958,-0.08459 -0.052502,-0.02665 -0.1047614,-0.0578 -0.1567546,-0.08877 C 7.0401163,19.852368 6.9884089,19.66103 6.9369898,19.627936 6.909551,19.451805 6.8821942,19.497999 6.854923,19.479785 6.818724,19.361271 6.7826756,19.434689 6.7467859,19.409599 6.6963353,19.37805 6.6461982,19.342379 6.5963968,19.305359 6.546219,19.272269 6.4963819,19.234296 6.4469084,19.19528 c -0.049788,-0.03485 -0.099207,-0.07054 -0.1482357,-0.111483 -0.050005,-0.03292 -0.099602,-0.07205 -0.1487681,-0.11548 -0.050006,-0.03186 -0.099566,-0.272237 -0.148653,-0.318088 -0.017638,-0.199504 -0.035215,-0.02375 -0.05273,-0.0404 -0.048247,-0.03658 -0.096022,-0.08502 -0.1432997,-0.132231 -0.047272,-0.03979 -0.094047,-0.03911 -0.1403006,-0.08759 -0.054456,-0.0011 -0.1081887,-0.134539 -0.1611571,-0.193395 -0.041209,-0.06526 -0.081955,-0.103223 -0.1222193,-0.150004 -0.04169,-0.05957 -0.082864,-0.135651 -0.1235002,-0.18508 -0.036389,-0.08253 -0.072346,-0.128308 -0.1078566,-0.173278 -0.035334,-0.08417 -0.070225,-0.184581 -0.1046594,-0.229941 -0.025751,-0.128695 -0.051247,-0.08577 -0.07648,-0.119953 -0.03711,-0.06806 -0.073653,-0.106307 -0.1096092,-0.157069 -0.038,-0.05916 -0.075343,-0.240711 -0.112008,-0.294859 -0.017521,-0.159031 -0.034888,-0.0052 -0.052096,-0.03113 -0.04408,-0.01983 -0.087125,-0.103795 -0.1290918,-0.170599 -0.039941,-0.03436 -0.078905,-0.08024 -0.1168541,-0.144229 -0.040937,-0.02189 -0.080693,-0.123219 -0.1192207,-0.192826 -0.034496,-0.04718 -0.068007,-0.210742 -0.1005009,-0.273518 -0.019117,-0.122787 -0.037882,-0.04914 -0.056288,-0.0861 -0.032835,-0.04119 -0.064526,-0.323512 -0.095035,-0.389603 -0.00371,-0.199577 -0.00739,-0.0017 -0.011065,-0.0097 -0.029098,-0.0492 -0.057095,-0.123522 -0.083956,-0.186389 -0.025962,-0.05755 -0.050864,-0.166223 -0.074673,-0.226399 -0.018663,-0.09216 -0.036654,-0.04514 -0.05396,-0.09182 -0.027615,-0.02555 -0.053483,-0.17863 -0.077541,-0.252365 -0.016806,-0.08154 -0.032729,-0.113093 -0.047747,-0.164103 -0.016921,-0.0678 -0.032694,-0.278361 -0.04729,-0.335167 -0.00245,-0.173289 -0.00486,-0.08891 -0.00724,-0.09838 -0.0096,-0.108095 -0.018667,-0.210844 -0.02718,-0.247955 -0.00383,-0.15171 -0.00755,-0.135035 -0.011158,-0.15142 -0.00584,-0.128317 -0.011385,-0.249969 -0.016632,-0.275483 0,-0.197445 0,-0.09143 0,-0.09143 -0.00465,-0.114048 -0.00907,-0.03979 -0.013252,-0.06114 -0.012203,-0.05751 -0.02239,-0.07591 -0.0305,-0.128802 -0.012187,-0.036 -0.019681,-0.134331 -0.022271,-0.200005 -0.0028,-0.05483 1.341e-4,-0.374056 0.00907,-0.43747 0,-0.23765 0,-0.0086 0,-0.0086 0.0075,-0.06177 0.019223,-0.057 0.035331,-0.0932 0.027576,-0.02427 0.067999,-0.123942 0.1220617,-0.195076 0.027635,-0.04461 0.058834,-0.0432 0.093703,-0.09048 0.030129,-0.0081 0.062999,-0.09765 0.098676,-0.162198 0.025577,-0.04627 0.052597,-0.07016 0.081085,-0.119755 0.028479,-0.04958 0.058341,-0.103642 0.089537,-0.150301 0.03031,-0.05129 0.061879,-0.153568 0.094662,-0.196188 0.023731,-0.09512 0.048099,-0.03099 0.073085,-0.06041 0.040914,-0.01819 0.083488,-0.07761 0.1276459,-0.122059 0.041473,-0.02488 0.084344,-0.04962 0.1285493,-0.08818 0.046103,-0.0079 0.093659,-0.03027 0.1425956,-0.06714 0.050235,0.01062 0.1019247,-0.02702 0.1549937,-0.0615 0.051254,0.01367 0.1037942,-0.194372 0.1575517,-0.224674 0.029788,-0.14608 0.05995,-0.02021 0.090474,-0.03603 0.051156,-0.01363 0.1033278,-0.118652 0.1564618,-0.142513 0.043901,-0.08668 0.088458,-0.01615 0.1336402,-0.03402 0.056157,1.36e-4 0.1132809,0.01491 0.1713104,-0.0046 0.060223,0.03774 0.1214212,-0.122092 0.1835289,-0.139541 0.050014,-0.09712 0.1006176,-0.04645 0.1517757,-0.05864 0.057439,-0.03297 0.1155766,-0.0183 0.1743641,-0.02967 0.060568,-0.0038 0.1218251,-0.0408 0.1837181,-0.05014 0.060594,-0.02772 0.1217979,-0.201389 0.18356,-0.208287 0.058438,-0.190767 0.117376,-0.0051 0.176771,-0.0094 0.066337,0.002 0.1332434,0.01846 0.2006604,0.01652 0.066559,0.02455 0.133616,-0.06165 0.2011124,-0.06106 0.067924,-0.0585 0.1362933,-0.04487 0.2050494,-0.04166 0.069581,-0.04414 0.1395583,0.06723 0.2098707,0.07318 0.066168,0.06495 0.1326336,-0.02306 0.199345,-0.01536 0.069873,-0.02727 0.140016,-0.01499 0.2103709,-0.0046 0.070483,-0.0219 0.1411791,0.02022 0.212029,0.03296 0.068734,0.01058 0.1376135,0.02611 0.2065842,0.04055 0.068276,0.01462 0.1366413,0.03676 0.2050445,0.05296 0.06728,0.02313 0.1345964,-0.09044 0.2019001,-0.07281 0.079811,-0.102276 0.1596035,-0.02828 0.2392959,-0.0042 0.076458,-0.04868 0.1528247,0.101166 0.2290258,0.127414 0.061204,0.07443 0.1223025,-0.129247 0.1832563,-0.10664 0.089565,-0.138991 0.1788184,0.04366 0.2676412,0.08216 0.070173,0.0048 0.1400767,0.06181 0.2096529,0.09527 0.064286,0.03025 0.1282932,0.124205 0.1919735,0.157324 0.052344,0.08839 0.1044666,0.02741 0.1563436,0.05537 0.0642,0.0072 0.128019,0.128978 0.191414,0.164842 0.04954,0.08709 0.09882,0.03932 0.14782,0.0673 0.06021,0.01765 0.119992,-0.139983 0.179302,-0.105478 0.09335,-0.154543 0.18554,0.03677 0.276389,0.101554 0.06925,-0.02904 0.137725,0.122013 0.205347,0.17825 0.04577,0.05695 0.09114,0.117612 0.136103,0.156794 0.03926,0.0749 0.07821,0.08736 0.11683,0.120465 0.04288,0.05617 0.08535,0.09144 0.127385,0.125539 0.04434,0.05522 0.0882,0.09339 0.131555,0.124978 0.0467,0.05788 0.09281,0.06905 0.138313,0.09599 0.05236,0.03644 0.103901,0.09038 0.154588,0.115776 0.05218,0.02614 0.103445,0.05435 0.153751,0.08324 0.05255,0.03019 0.103829,0.0657 0.153623,0.101627 0.0494,0.03795 0.09734,0.102076 0.14362,0.14274 0.0418,0.06487 0.08225,0.115937 0.121198,0.155813 0.03671,0.07841 0.07208,0.100848 0.106011,0.140167 0.03683,0.06749 0.07195,0.07441 0.105205,0.118361 0.03965,0.04084 0.07665,0.06425 0.110735,0.119194 0.03876,0.02063 0.07374,0.175396 0.104561,0.244645 0.02008,0.09157 0.03838,0.103446 0.05481,0.147602 0.02074,0.06966 0.03849,-0.0069 0.05304,0.04701 0.01922,-0.04533 0.03284,0.174571 0.04036,0.283861 0.0046,0.06728 0.0069,0.141207 0.0068,0.191613 -1.28e-4,0.05718 -8.72e-4,0.04587 -0.0022,0.104437 -0.0019,0.01173 -0.0049,0.163234 -0.0092,0.246702 -0.003,0.0598 -0.0067,0.133122 -0.01091,0.19408 -0.0039,0.06967 -0.0084,0.08706 -0.01342,0.144714 -0.0061,0.0438 -0.01304,0.176591 -0.02074,0.248542 -0.0055,0.08622 -0.01148,0.142486 -0.01782,0.194744 -0.0062,0.08999 -0.01283,0.157599 -0.01983,0.209253 -0.0063,0.101707 -0.013,0.09249 -0.01998,0.139548 -0.0097,0.06441 -0.0201,0.155785 -0.03108,0.221863 -0.0096,0.0822 -0.01974,0.138354 -0.03032,0.196532 -0.01074,0.08135 -0.02197,0.09455 -0.0337,0.153711 -0.01466,0.05038 -0.03009,0.142346 -0.04628,0.216444 -0.01495,0.06266 -0.03054,0.134834 -0.04679,0.203189 -0.01598,0.06526 -0.03258,0.1513 -0.04982,0.218363 -0.01574,0.07819 -0.032,0.11162 -0.04879,0.17263 -0.01917,0.05892 -0.03903,0.107053 -0.05957,0.176342 -0.02247,0.04365 -0.04575,0.05988 -0.06986,0.13512 -0.02972,0.0013 -0.06067,0.188008 -0.09288,0.28004 -0.02228,0.06645 -0.04516,0.119241 -0.06864,0.182425 -0.02458,0.05824 -0.0498,0.07737 -0.07568,0.142864 -0.03105,0.02395 -0.06304,0.141462 -0.09597,0.219093 -0.02806,0.05086 -0.0568,0.153696 -0.08622,0.219032 -0.02472,0.07666 -0.04992,0.07815 -0.0756,0.132306 -0.03238,0.03698 -0.06552,0.190896 -0.09943,0.257966 -0.02232,0.09903 -0.04496,-0.01858 -0.06794,0.02485 -0.04484,-0.02177 -0.09095,0.228351 -0.138302,0.310981 -0.02337,0.100535 -0.04704,0.0836 -0.07101,0.123616 -0.0323,0.05633 -0.06516,0.106808 -0.09857,0.159232 -0.03376,0.05269 -0.0681,0.107265 -0.102994,0.158611 -0.03449,0.05283 -0.06953,0.09861 -0.105128,0.147627 -0.03621,0.04782 -0.07299,0.121271 -0.110343,0.169227 -0.03347,0.06544 -0.06739,0.08893 -0.101772,0.130138 -0.03754,0.04885 -0.07564,-0.159368 -0.114272,-0.116589 -0.0781,-0.161803 -0.158435,0.174649 -0.240996,0.259755 -0.03891,0.04163 -0.07832,0.01824 -0.118218,0.05746 -0.04939,-0.01308 -0.09955,0.117607 -0.150454,0.165343 -0.03627,0.05468 -0.07293,0.108612 -0.109974,0.141547 -0.03341,0.07076 -0.06714,0.04108 -0.101177,0.06921 -0.0436,0.01845 -0.08771,0.02292 -0.132337,0.05647 -0.04935,-0.01088 -0.09933,-0.0077 -0.149937,0.02744 -0.055556,-0.04261 -0.1118658,0.03558 -0.1689301,0.07467 -0.049383,-0.0088 -0.099331,0.08874 -0.1498438,0.123128 -0.038356,0.04615 -0.077037,0.05568 -0.1160432,0.07958 -0.042285,0.03024 -0.084953,0.0832 -0.1280023,0.105023 -0.043008,0.05497 -0.086397,0.08014 -0.1301673,0.09294 -0.053702,0.05728 -0.1079767,-0.03352 -0.162825,-0.03806 -0.055478,-0.0046 -0.1115421,0.02826 -0.1681923,0.02813 z"
       id="path39"
       sodipodi:nodetypes="sssss"
       inkscape:label="left_red"
       inkscape:path-effect="#path-effect3"
       inkscape:original-d="m 8.993807,20.604516 c -3.333325,-0.0074 -6.6602358,-5.769799 -5,-8.660253 1.3385247,-2.3303597 5.7318187,-1.374424 8.062177,-0.0359 0.578091,0.332047 1.001484,1.065385 1,1.73205 -0.006,2.687412 -1.374765,6.970084 -4.062177,6.964101 z" /><path
       style="display:none;fill:#474444;fill-opacity:1;stroke-width:0.264583;filter:url(#filter45)"
       d="m 8.3152994,4.2931265 c 1.6730894,-2.8830336 8.3269106,-2.8830336 9.9999996,0 1.348888,2.324376 -1.675624,5.6511118 -4,6.9999995 -0.576606,0.334618 -1.423393,0.334618 -2,0 C 9.9909234,9.9442383 6.9664116,6.6175025 8.3152994,4.2931265 Z"
       id="path81"
       sodipodi:nodetypes="sssss"
       inkscape:label="top_gray"
       transform="matrix(0.75000001,0,0,0.75000001,3.3462281,2.8927868)" /><path
       style="display:none;fill:#474444;fill-opacity:1;stroke-width:0.264583;filter:url(#filter49)"
       d="m 22.651056,11.899889 c 1.660235,2.890455 -1.666675,8.652833 -5.000001,8.660254 -2.687411,0.006 -4.056193,-4.276689 -4.062177,-6.964102 -0.0015,-0.666665 0.421909,-1.400003 1,-1.73205 2.330359,-1.338525 6.723653,-2.2944611 8.062178,0.0359 z"
       id="path82"
       sodipodi:nodetypes="sssss"
       inkscape:label="right_gray"
       transform="matrix(0.75000001,0,0,0.75000001,3.488707,3.2193394)" /><path
       style="display:none;fill:#474444;fill-opacity:1;stroke-width:0.264583;filter:url(#filter47)"
       d="m 8.993807,20.604516 c -3.333325,-0.0074 -6.6602358,-5.769799 -5,-8.660253 1.3385247,-2.3303597 5.7318187,-1.374424 8.062177,-0.0359 0.578091,0.332047 1.001484,1.065385 1,1.73205 -0.006,2.687412 -1.374765,6.970084 -4.062177,6.964101 z"
       id="path83"
       sodipodi:nodetypes="sssss"
       inkscape:label="left_gray"
       transform="matrix(0.75000001,0,0,0.75000001,3.0854925,3.126013)" /></g><g
     inkscape:groupmode="layer"
     id="g74"
     inkscape:label="cost_ticks"
     transform="rotate(120,4.8346432,6.0748483)"
     style="display:inline"><g
       inkscape:groupmode="layer"
       id="layer6"
       inkscape:label="left"
       transform="rotate(-120,4.8346432,6.0748483)"
       style="display:none"><path
         style="display:inline;fill:#f783af;fill-opacity:1;stroke-width:0.264583"
         d="m 7.9451388,16.821284 c 0,0 -2.7392222,0.338691 -4.4794446,-2.675463 -1.7140311,-2.968789 -0.086816,-5.2063089 -0.086816,-5.2063089 0,0 0.024175,0.4446294 0.2386185,1.2146009 0.2144434,0.769971 1.2875539,1.523227 2.0166769,2.788239 0.7840509,1.360315 0.8930395,2.608876 1.4317343,3.145172 0.5386948,0.536297 0.8792311,0.73376 0.8792309,0.73376 z"
         id="path75"
         sodipodi:nodetypes="cscsszc" /><circle
         style="display:inline;fill:#aa0b62;fill-opacity:1;stroke-width:0.264583"
         id="circle75"
         cx="-14.035191"
         cy="-2.8700526"
         r="1.0637013"
         transform="rotate(-120)" /><path
         style="display:inline;fill:#f783af;fill-opacity:1;stroke-width:0.264583"
         d="m 7.9451388,16.821284 c 0,0 -1.7278702,-0.631755 -2.3174119,-1.0968 C 5.0381852,15.259439 5.3359046,14.270331 4.8608022,13.428554 4.3869745,12.589041 3.2926558,12.125696 3.172414,11.368166 3.0521722,10.610636 3.378878,8.9395121 3.378878,8.9395121 c 0,0 0.024175,0.4446294 0.2386185,1.2146009 0.2144434,0.769971 1.2875539,1.523227 2.0166769,2.788239 0.7840509,1.360315 0.8930395,2.608876 1.4317343,3.145172 0.5386948,0.536297 0.8792311,0.73376 0.8792311,0.73376 z"
         id="path76"
         sodipodi:nodetypes="cssscsszc" /></g><g
       inkscape:groupmode="layer"
       id="layer7"
       inkscape:label="right"
       transform="rotate(-120,4.8346432,6.0748483)"
       style="display:none"><path
         style="display:inline;fill:#adf783;fill-opacity:1;stroke-width:0.264583"
         d="m 16.568494,8.9327061 c 0,0 1.662926,2.2028909 -0.0773,5.2170439 -1.714031,2.968789 -4.465388,2.67834 -4.465388,2.67834 0,0 0.372973,-0.243251 0.932566,-0.81395 0.559593,-0.570699 0.675376,-1.876668 1.406347,-3.140613 0.786043,-1.359166 1.812833,-2.077833 2.007932,-2.812504 C 16.56775,9.3263509 16.56849,8.9327061 16.56849,8.9327061 Z"
         id="path72"
         sodipodi:nodetypes="cscsszc" /><circle
         style="display:inline;fill:#68ce0d;fill-opacity:1;stroke-width:0.264583"
         id="circle72"
         cx="3.9567416"
         cy="-20.155193"
         r="1.0637013"
         transform="rotate(120)" /><path
         style="display:inline;fill:#adf783;fill-opacity:1;stroke-width:0.264583"
         d="m 16.568494,8.9327061 c 0,0 0.31682,1.8122569 0.20885,2.5553379 -0.107971,0.74308 -1.113423,0.979802 -1.604871,1.812141 -0.490127,0.830103 -0.344236,2.009484 -0.940155,2.492381 -0.595919,0.482897 -2.206508,1.035524 -2.206508,1.035524 0,0 0.372973,-0.243251 0.932566,-0.81395 0.559593,-0.570699 0.675376,-1.876668 1.406347,-3.140613 0.786043,-1.359166 1.812833,-2.077833 2.007932,-2.812504 0.195099,-0.7346721 0.195839,-1.1283169 0.195839,-1.1283169 z"
         id="path73"
         sodipodi:nodetypes="cssscsszc" /></g><g
       inkscape:groupmode="layer"
       id="layer8"
       inkscape:label="top"
       transform="rotate(-120,4.8346432,6.0748483)"
       style="display:none"><path
         style="display:inline;fill:#83d4f7;fill-opacity:1;stroke-width:0.264583"
         d="m 5.5954702,5.3499345 c 0,0 1.0762962,-2.5415814 4.5567408,-2.5415814 3.428062,0 4.552204,2.5279694 4.552204,2.5279694 0,0 -0.397148,-0.2013786 -1.171184,-0.4006508 -0.774037,-0.1992722 -1.96293,0.353441 -3.423024,0.3523742 C 8.5401132,5.2868988 7.404334,4.7570027 6.6705403,4.9553778 5.9367466,5.153753 5.5954702,5.3499345 5.5954702,5.3499345 Z"
         id="path78"
         sodipodi:nodetypes="cscsszc" /><circle
         style="display:inline;fill:#8397f7;fill-opacity:1;stroke-width:0.264583"
         id="circle78"
         cx="10.100509"
         cy="4.0098319"
         r="1.0637013" /><path
         style="display:inline;fill:#83d4f7;fill-opacity:1;stroke-width:0.264583"
         d="m 5.5954702,5.3499345 c 0,0 1.4110505,-1.1805024 2.1085624,-1.4585378 0.6975119,-0.2780353 1.405245,0.4743512 2.3717954,0.4837886 0.963954,0.00941 1.912382,-0.7066252 2.628543,-0.4319928 0.716161,0.2746324 2.000044,1.39313 2.000044,1.39313 0,0 -0.397148,-0.2013786 -1.171184,-0.4006508 -0.774037,-0.1992722 -1.96293,0.353441 -3.423024,0.3523742 C 8.5401132,5.2868988 7.404334,4.7570027 6.6705403,4.9553778 5.9367466,5.153753 5.5954702,5.3499345 5.5954702,5.3499345 Z"
         id="path79"
         sodipodi:nodetypes="cssscsszc" /></g></g></svg>
